<?xml version="1.0" encoding="utf-8"?><svg viewBox="0 0 30 30" xmlns="http://www.w3.org/2000/svg" xmlns:xlink="http://www.w3.org/1999/xlink"><style>:root>svg{display:none}:root>svg:target{display:block}</style><svg viewBox="0 0 30 30" id="burger" xmlns="http://www.w3.org/2000/svg"><path d="M6.25 8.75h17.5M6.25 15h12.5m-12.5 6.25h7.5"/></svg><svg viewBox="0 0 20 16" id="mail" xmlns="http://www.w3.org/2000/svg"><path d="M5.29.907a54.397 54.397 0 019.42 0l1.511.132a2.888 2.888 0 012.313 1.545.235.235 0 01-.091.307l-6.266 3.88a4.25 4.25 0 01-4.4.045L1.47 3.088a.236.236 0 01-.103-.293A2.889 2.889 0 013.78 1.039L5.29.907z"/><path d="M1.362 4.767a.248.248 0 00-.373.187 30.351 30.351 0 00.184 7.56A2.888 2.888 0 003.78 14.96l1.51.131c3.135.273 6.287.273 9.422 0l1.51-.131a2.888 2.888 0 002.606-2.448 30.35 30.35 0 00.161-7.779.247.247 0 00-.377-.183l-5.645 3.495a5.75 5.75 0 01-5.951.061l-5.653-3.34z"/></svg></svg>